<svg width="792" height="612" viewBox="0 0 792 612" fill="none" xmlns="http://www.w3.org/2000/svg">
<path d="M25.7379 428.637C21.684 409.019 21 395.155 21 378.906V181H77.8378V346.075C77.8378 379.907 79.1891 402.229 84.611 429.288L25.7545 428.604L25.7379 428.637Z" fill="black"/>
<path d="M105.097 428.637C101.043 409.019 100.359 395.155 100.359 378.906V181H157.197V346.075C157.197 379.907 158.548 402.229 163.97 429.288L105.114 428.604L105.097 428.637Z" fill="black"/>
<path d="M266.285 428.637C263.582 416.793 262.231 410.036 261.547 403.597C249.035 421.864 231.785 430.656 208.429 430.656C173.246 430.656 148.555 411.705 148.555 380.925C148.555 346.425 178.317 325.105 227.381 325.105C234.821 325.105 245.982 325.438 257.143 326.456V323.07C257.143 305.469 246.666 295.326 231.101 295.326C218.256 295.326 206.745 302.433 201.339 312.243L156.68 287.886C169.192 264.88 198.97 248.648 237.19 248.648C285.22 248.648 312.629 274.023 312.629 329.159V366.378C312.629 389.383 314.314 405.615 320.07 427.269L266.285 428.621V428.637ZM257.143 358.62C247 357.936 236.506 357.603 231.435 357.603C212.483 357.603 203.358 365.043 203.358 375.87C203.358 385.346 210.465 392.786 222.977 392.786C238.875 392.786 254.107 382.643 256.125 368.763L257.143 358.62Z" fill="black"/>
<path d="M312.262 427.286V329.526C312.262 272.021 341.357 247.998 389.386 247.998C420.166 247.998 441.486 257.807 453.998 280.128H457.385C469.897 257.807 491.217 247.998 521.997 247.998C570.026 247.998 599.121 272.021 599.121 329.526V427.286H543.634V329.526C543.634 308.222 534.492 295.026 513.522 295.026C492.552 295.026 483.41 308.222 483.41 329.526V427.286H427.923V329.526C427.923 308.222 418.781 295.026 397.811 295.026C376.841 295.026 367.699 308.222 367.699 329.526V427.286H312.212H312.262Z" fill="black"/>
<path d="M701.269 428.637C698.567 416.793 697.215 410.036 696.531 403.597C684.019 421.864 666.769 430.656 643.414 430.656C608.23 430.656 583.54 411.705 583.54 380.925C583.54 346.425 613.301 325.105 662.365 325.105C669.806 325.105 680.966 325.438 692.127 326.456V323.07C692.127 305.469 681.65 295.326 666.085 295.326C653.24 295.326 641.729 302.433 636.324 312.243L591.664 287.886C604.176 264.88 633.955 248.648 672.175 248.648C720.204 248.648 747.614 274.023 747.614 329.159V366.378C747.614 389.383 749.299 405.615 755.054 427.269L701.269 428.621V428.637ZM692.127 358.62C681.984 357.936 671.491 357.603 666.419 357.603C647.468 357.603 638.342 365.043 638.342 375.87C638.342 385.346 645.449 392.786 657.961 392.786C673.86 392.786 689.091 382.643 691.109 368.763L692.127 358.62Z" fill="black"/>
<path d="M734.418 234.72C734.418 232.39 734.986 230.267 736.123 228.349C737.259 226.431 738.786 224.904 740.704 223.768C742.621 222.632 744.745 222.063 747.074 222.063C749.092 222.063 750.952 222.497 752.657 223.363C754.376 224.23 755.796 225.416 756.918 226.921C758.04 228.413 758.736 230.103 759.006 231.992H753.85C753.566 230.529 752.778 229.336 751.485 228.413C750.192 227.475 748.722 227.007 747.074 227.007C745.654 227.007 744.361 227.355 743.197 228.051C742.032 228.747 741.101 229.677 740.405 230.842C739.709 232.007 739.361 233.299 739.361 234.72C739.361 236.14 739.709 237.433 740.405 238.597C741.101 239.762 742.032 240.693 743.197 241.389C744.361 242.085 745.654 242.433 747.074 242.433C748.722 242.433 750.114 241.971 751.251 241.048C752.401 240.11 753.126 238.91 753.424 237.447H758.58C758.31 239.336 757.65 241.034 756.599 242.539C755.547 244.031 754.198 245.21 752.55 246.076C750.917 246.943 749.092 247.376 747.074 247.376C744.745 247.376 742.621 246.808 740.704 245.671C738.786 244.535 737.259 243.008 736.123 241.09C734.986 239.173 734.418 237.049 734.418 234.72ZM746.861 257.22C743.765 257.22 740.853 256.637 738.126 255.472C735.413 254.308 733.019 252.695 730.945 250.636C728.886 248.562 727.266 246.169 726.087 243.455C724.922 240.742 724.347 237.83 724.361 234.72C724.376 231.609 724.965 228.697 726.13 225.984C727.309 223.271 728.928 220.884 730.988 218.825C733.047 216.751 735.434 215.132 738.147 213.967C740.86 212.802 743.765 212.22 746.861 212.22C749.972 212.22 752.884 212.802 755.597 213.967C758.324 215.132 760.711 216.751 762.756 218.825C764.816 220.884 766.428 223.271 767.593 225.984C768.758 228.697 769.347 231.609 769.361 234.72C769.376 237.83 768.8 240.742 767.636 243.455C766.471 246.169 764.859 248.562 762.799 250.636C760.739 252.695 758.346 254.308 755.618 255.472C752.891 256.637 749.972 257.22 746.861 257.22ZM746.861 252.276C749.29 252.276 751.57 251.822 753.701 250.913C755.832 250.004 757.699 248.747 759.305 247.142C760.91 245.536 762.167 243.676 763.076 241.559C763.985 239.428 764.432 237.156 764.418 234.741C764.404 232.312 763.942 230.032 763.033 227.901C762.124 225.771 760.867 223.903 759.262 222.298C757.657 220.693 755.796 219.436 753.68 218.526C751.563 217.617 749.29 217.163 746.861 217.163C744.447 217.163 742.181 217.617 740.065 218.526C737.948 219.436 736.087 220.7 734.482 222.319C732.877 223.924 731.613 225.792 730.69 227.923C729.78 230.039 729.319 232.312 729.305 234.741C729.29 237.142 729.738 239.407 730.647 241.538C731.556 243.654 732.813 245.515 734.418 247.12C736.038 248.725 737.905 249.99 740.022 250.913C742.153 251.822 744.432 252.276 746.861 252.276Z" fill="#231F20"/>
</svg>
